<svg xmlns="http://www.w3.org/2000/svg" viewBox="0 0 16 15.97"><defs><style>.cls-1{fill:#1d1d1b;}</style></defs><g id="Calque_2" data-name="Calque 2"><g id="Calque_1-2" data-name="Calque 1"><path class="cls-1" d="M12.34,11.13c.4,3,1.77,4.71,3.66,4.62v.16c-2.78.49-4.31-1.86-4.63-4.63L10.54,4,7.72,11.67a9.42,9.42,0,0,0-.47,1.67H7.13L3.61,4.17,3,12.26a.62.62,0,0,0,.52.69h.22v.16H1.12V13h.21a1,1,0,0,0,1-1l.86-8.88C2.61,1.72,1.64,0,0,.27V.11C2.32-.52,3.61,1.69,4,2.8l3.27,8.5L11,1.48h.12Z"/></g></g></svg>